<svg xmlns="http://www.w3.org/2000/svg" viewBox="0 0 818 686" role="img" aria-label="Neural Computer mark">
  <defs>
    <linearGradient id="s1" x1="0%" y1="0%" x2="100%" y2="0%">
      <stop offset="0%" stop-color="#4f82d8"/>
      <stop offset="52%" stop-color="#4d82da"/>
      <stop offset="100%" stop-color="#4c80da"/>
    </linearGradient>
    <linearGradient id="s2" x1="0%" y1="0%" x2="100%" y2="0%">
      <stop offset="0%" stop-color="#605fd4"/>
      <stop offset="50%" stop-color="#6260d5"/>
      <stop offset="100%" stop-color="#615fd4"/>
    </linearGradient>
    <linearGradient id="s3" x1="0%" y1="0%" x2="100%" y2="0%">
      <stop offset="0%" stop-color="#9054df"/>
      <stop offset="50%" stop-color="#9154df"/>
      <stop offset="100%" stop-color="#9254e0"/>
    </linearGradient>
    <linearGradient id="s4" x1="0%" y1="0%" x2="100%" y2="0%">
      <stop offset="0%" stop-color="#5cc8ea"/>
      <stop offset="52%" stop-color="#5cc9ea"/>
      <stop offset="100%" stop-color="#5cc8ea"/>
    </linearGradient>
    <linearGradient id="s5" x1="0%" y1="0%" x2="100%" y2="0%">
      <stop offset="0%" stop-color="#51afaa"/>
      <stop offset="50%" stop-color="#51b0aa"/>
      <stop offset="100%" stop-color="#51b1aa"/>
    </linearGradient>
    <linearGradient id="s6" x1="0%" y1="0%" x2="100%" y2="0%">
      <stop offset="0%" stop-color="#307098"/>
      <stop offset="50%" stop-color="#30709a"/>
      <stop offset="100%" stop-color="#30709a"/>
    </linearGradient>
    <linearGradient id="s7" x1="0%" y1="0%" x2="100%" y2="0%">
      <stop offset="0%" stop-color="#423b9c"/>
      <stop offset="50%" stop-color="#40399c"/>
      <stop offset="100%" stop-color="#423a9d"/>
    </linearGradient>
    <linearGradient id="s8" x1="0%" y1="0%" x2="100%" y2="0%">
      <stop offset="0%" stop-color="#311f5f"/>
      <stop offset="50%" stop-color="#3b267b"/>
      <stop offset="100%" stop-color="#3b2679"/>
    </linearGradient>
  </defs>
  <g transform="translate(818 0) scale(-1 1)">
    <path d="M1465 699 c-22 -5 -65 -15 -95 -21 -30 -6 -59 -15 -64 -20 -6 -4 -16 -8 -24 -8 -7 0 -75 -29 -149 -65 -74 -36 -138 -65 -142 -65 -3 0 -17 -9 -31 -20 -14 -11 -33 -20 -42 -20 -10 0 -18 -3 -18 -7 0 -5 -21 -17 -48 -27 -89 -37 -682 -322 -799 -385 -10 -5 -26 -12 -35 -15 -10 -3 -18 -12 -18 -20 0 -10 19 -15 73 -19 126 -9 5301 -7 5316 2 21 13 13 23 -80 98 -106 87 -128 105 -143 118 -41 38 -175 145 -181 145 -4 0 -15 8 -24 18 -9 9 -34 31 -56 47 -22 16 -50 39 -61 50 -51 48 -173 145 -183 145 -6 0 -11 4 -11 9 0 5 -21 17 -47 26 -130 46 -74 44 -1628 44 -864 -1 -1486 -5 -1510 -10z" transform="translate(155 71) scale(0.1 -0.1)" fill="url(#s1)"/>
    <path d="M449 693 c-65 -43 -152 -144 -198 -228 -24 -45 -44 -78 -51 -85 -6 -6 -13 -19 -76 -136 -26 -49 -50 -91 -54 -94 -3 -3 -16 -27 -30 -55 -14 -27 -29 -53 -34 -57 -6 -4 -4 -13 3 -22 13 -15 335 -16 3630 -16 3973 1 3669 -4 3635 62 -28 54 -83 115 -153 171 -36 28 -73 59 -82 69 -9 10 -19 18 -23 18 -3 0 -23 16 -43 35 -20 19 -40 35 -44 35 -4 0 -14 6 -21 12 -7 7 -36 31 -63 53 -28 22 -55 44 -61 50 -6 5 -33 28 -60 50 -27 22 -72 61 -101 87 -28 26 -61 51 -72 57 -14 8 -892 11 -3049 11 -2773 -1 -3030 -2 -3053 -17z" transform="translate(67 160) scale(0.1 -0.1)" fill="url(#s2)"/>
    <path d="M374 688 c-11 -13 -26 -36 -35 -53 -50 -92 -131 -237 -149 -265 -5 -8 -21 -35 -35 -60 -14 -25 -35 -61 -47 -80 -11 -19 -37 -64 -56 -100 -19 -36 -39 -69 -43 -74 -15 -17 -10 -44 9 -50 24 -7 7334 -7 7695 1 l297 6 0 136 c0 75 -5 153 -10 174 -36 135 -106 356 -120 372 -11 13 -435 15 -3749 15 l-3738 0 -19 -22z" transform="translate(17 249) scale(0.1 -0.1)" fill="url(#s3)"/>
    <path d="M58 715 c-32 -18 -37 -32 -48 -136 -11 -109 5 -229 38 -299 14 -30 30 -56 34 -58 4 -2 8 -12 8 -22 0 -9 7 -23 15 -30 8 -6 17 -21 21 -33 11 -34 72 -124 88 -130 9 -4 1805 -7 3991 -7 l3975 0 0 365 0 365 -4047 0 c-3524 -1 -4051 -3 -4075 -15z" transform="translate(0 339) scale(0.1 -0.1)" fill="url(#s4)"/>
    <path d="M45 713 c-30 -8 -46 -35 -32 -53 7 -8 19 -28 28 -45 102 -190 139 -255 181 -317 21 -31 38 -62 38 -67 0 -6 3 -11 8 -11 4 0 18 -17 31 -37 26 -43 95 -99 158 -132 108 -54 -146 -51 3780 -51 l3623 0 0 360 0 360 -3897 -1 c-2144 -1 -3907 -4 -3918 -6z" transform="translate(32 427) scale(0.1 -0.1)" fill="url(#s5)"/>
    <path d="M70 712 c-52 -6 -70 -13 -70 -28 0 -15 39 -76 53 -82 4 -2 7 -9 7 -16 0 -7 9 -21 20 -31 11 -10 20 -24 20 -32 0 -7 4 -13 8 -13 5 0 13 -10 19 -22 12 -27 189 -286 208 -305 8 -7 22 -23 32 -36 23 -29 107 -87 126 -87 9 0 17 -3 19 -8 2 -4 35 -17 74 -30 l70 -22 2496 0 2496 0 28 38 c15 20 32 38 36 40 4 2 8 8 8 13 0 5 19 35 43 66 24 32 64 87 90 121 l47 64 0 184 c0 168 -1 184 -17 184 -84 3 -5794 4 -5813 2z" transform="translate(228 516) scale(0.1 -0.1)" fill="url(#s6)"/>
    <path d="M4 696 c-3 -8 8 -29 26 -48 18 -18 44 -49 59 -68 14 -19 36 -45 48 -57 12 -12 34 -40 50 -60 23 -32 115 -143 148 -179 6 -6 19 -23 30 -38 11 -16 25 -33 30 -40 6 -6 25 -32 44 -56 19 -25 41 -52 48 -60 8 -8 27 -30 42 -48 l28 -33 984 1 c1039 0 1002 -1 1117 45 23 9 42 21 42 26 0 5 7 9 15 9 25 0 175 158 220 232 6 9 31 44 58 77 26 34 47 64 47 67 0 5 41 65 51 74 3 3 18 23 35 45 16 22 37 49 47 59 9 11 17 30 17 43 l0 23 -1590 0 c-1368 0 -1591 -2 -1596 -14z" transform="translate(457 605) scale(0.1 -0.1)" fill="url(#s7)"/>
    <path d="M8 623 c-11 -13 -5 -26 28 -63 12 -14 41 -47 64 -75 22 -27 52 -62 65 -78 14 -15 25 -29 25 -32 0 -3 9 -15 19 -27 31 -36 49 -58 171 -207 l115 -140 373 -1 c351 0 372 1 363 18 -5 9 -21 55 -36 102 -14 47 -30 94 -34 105 -5 11 -14 38 -20 60 -7 22 -21 59 -32 82 -10 24 -19 50 -19 58 0 8 -4 23 -9 33 -5 9 -19 50 -31 90 -12 40 -27 75 -33 78 -7 2 -234 5 -505 6 -376 2 -496 0 -504 -9z" transform="translate(530 686) scale(0.1 -0.1)" fill="url(#s8)"/>
  </g>
</svg>
